<svg xmlns="http://www.w3.org/2000/svg" width="30" height="37.481" viewBox="0 0 30 37.481">
  <g id="shopping-bag" transform="translate(-48.8)">
    <path id="Tracé_38103" data-name="Tracé 38103" d="M78.792,32.4,76.646,8.232a1.033,1.033,0,0,0-1.027-.943H71.2a7.405,7.405,0,0,0-14.808,0H51.981a1.028,1.028,0,0,0-1.027.943L48.808,32.4c0,.031-.008.061-.008.092,0,2.752,2.522,4.99,5.626,4.99H73.174c3.1,0,5.626-2.238,5.626-4.99A.373.373,0,0,0,78.792,32.4ZM63.8,2.069a5.34,5.34,0,0,1,5.335,5.22H58.465A5.34,5.34,0,0,1,63.8,2.069Zm9.374,33.342H54.426c-1.947,0-3.526-1.288-3.556-2.874L52.924,9.366h3.464v3.143a1.035,1.035,0,1,0,2.069,0V9.366H69.135v3.143a1.035,1.035,0,1,0,2.069,0V9.366h3.464l2.062,23.171C76.7,34.124,75.113,35.411,73.174,35.411Z" fill="#fff"/>
  </g>
</svg>
